<?xml version="1.0" encoding="utf-8"?>
<!-- Generator: Adobe Illustrator 16.0.0, SVG Export Plug-In . SVG Version: 6.00 Build 0)  -->
<!DOCTYPE svg PUBLIC "-//W3C//DTD SVG 1.1//EN" "http://www.w3.org/Graphics/SVG/1.1/DTD/svg11.dtd">
<svg version="1.1" xmlns="http://www.w3.org/2000/svg" xmlns:xlink="http://www.w3.org/1999/xlink" x="0px" y="0px" width="960px"
	 height="200px" viewBox="0 0 960 200" enable-background="new 0 0 960 200" xml:space="preserve">
<g id="Layer_1">
	<g transform="translate(0,-1004.3622)">
		<path d="M111.449,1016.766c-48.356,0-87.597,39.24-87.597,87.597s39.24,87.597,87.597,87.597s87.597-39.24,87.597-87.597
			S159.805,1016.766,111.449,1016.766z M111.449,1020.458c46.361,0,83.903,37.544,83.904,83.904
			c-0.001,46.361-37.543,83.911-83.904,83.911s-83.904-37.55-83.904-83.911C27.544,1058.002,65.087,1020.458,111.449,1020.458z
			 M111.591,1049.614c-12.333-0.069-22.536,9.56-23.717,21.906h-9.438c-0.594-2.379-2.745-4.17-5.297-4.17
			c-3.002,0-5.475,2.473-5.475,5.475c0,1.512,0.627,2.883,1.633,3.878l-12.482,35.672c-0.028,0.072-0.003,0.155-0.021,0.228h-0.093
			v1.825c0,5.865,3.133,11.296,8.212,14.229c5.08,2.933,11.346,2.933,16.425,0s8.212-8.363,8.212-14.229v-1.825h-0.078
			c-0.019-0.076,0.007-0.158-0.021-0.228l-12.482-35.665c0.451-0.443,0.813-0.965,1.091-1.539h26.533
			c0.31,0.897,0.784,1.713,1.396,2.416v63.281h-7.299c-1.008,0-1.825,0.817-1.825,1.825v5.475h-5.475
			c-1.008,0-1.825,0.817-1.825,1.824v7.3c0,1.009,0.817,1.825,1.825,1.825h40.148c1.008,0,1.824-0.816,1.824-1.825v-7.3
			c0-1.007-0.816-1.824-1.824-1.824h-5.475v-5.475c-0.001-1.008-0.817-1.825-1.825-1.825h-7.3v-63.281
			c0.613-0.703,1.087-1.519,1.397-2.416h14.485c0.176,0.055,0.357,0.082,0.541,0.078c0.184,0.001,0.366-0.038,0.542-0.078h10.964
			c0.275,0.569,0.631,1.091,1.076,1.532l-12.481,35.672c-0.029,0.072,0.004,0.155-0.015,0.228h-0.1v1.825
			c0,5.865,3.133,11.296,8.212,14.229s11.346,2.933,16.425,0s8.212-8.363,8.212-14.229v-0.962c0.006-0.19,0.035-0.373,0.035-0.563
			h-0.014c-0.003-0.036-0.017-0.063-0.021-0.093v-0.207h-0.05c-0.02-0.076-0.021-0.155-0.05-0.228l-12.482-35.665
			c1.012-0.995,1.646-2.367,1.646-3.885c0-3.002-2.473-5.475-5.475-5.475c-2.552,0-4.703,1.791-5.297,4.17h-9.438
			C133.883,1059.289,123.835,1049.683,111.591,1049.614z M111.57,1053.265c10.239,0.058,18.683,7.967,19.825,18.256h-12.768
			c-0.24-1.313-0.843-2.493-1.689-3.465v-9.31c0-1.008-0.817-1.824-1.825-1.825h-7.3c-1.008,0.001-1.824,0.817-1.825,1.825v9.31
			c-0.847,0.972-1.448,2.151-1.689,3.465H91.531C92.685,1061.131,101.253,1053.205,111.57,1053.265z M109.638,1060.571h3.649v5.211
			c-0.586-0.153-1.191-0.257-1.824-0.257s-1.238,0.104-1.825,0.257V1060.571z M111.463,1069.176c2.037,0,3.649,1.612,3.649,3.649
			s-1.612,3.649-3.649,3.649c-2.038,0-3.65-1.612-3.65-3.649S109.425,1069.176,111.463,1069.176z M73.139,1071
			c1.029,0,1.825,0.796,1.825,1.825s-0.796,1.825-1.825,1.825s-1.824-0.796-1.824-1.825S72.11,1071,73.139,1071z M149.787,1071
			c1.029,0,1.825,0.796,1.825,1.825s-0.796,1.825-1.825,1.825s-1.825-0.796-1.825-1.825S148.757,1071,149.787,1071z
			 M72.626,1078.243c0.171,0,0.337,0.057,0.513,0.057c0.171,0,0.333-0.035,0.499-0.05l12.026,34.353H73.125H60.6L72.626,1078.243z
			 M149.273,1078.243c0.172,0,0.338,0.057,0.514,0.057c0.171,0,0.332-0.035,0.499-0.05l12.026,34.353h-12.54h-12.524
			L149.273,1078.243z M109.638,1079.861c0.587,0.153,1.192,0.257,1.825,0.257s1.238-0.104,1.824-0.257v61.007h-3.649V1079.861z
			 M53.065,1111.876l-3.643,0.214l0.114,1.825l0.071,1.232l0.007,0.115l0.021,0.106l0.449,2.366l0.335,1.797l3.586-0.677
			l-0.335-1.79l-0.421-2.26l-0.071-1.126L53.065,1111.876z M129.734,1111.876l-3.644,0.214l0.114,1.825l0.072,1.232l0.007,0.115
			l0.021,0.106l0.448,2.366l0.336,1.797l3.585-0.677l-0.335-1.79l-0.421-2.26l-0.07-1.126L129.734,1111.876z M93.164,1112.546
			l-0.136,2.274l-0.078,0.413l-0.335,1.796l3.593,0.671l0.335-1.789l0.1-0.528l0.021-0.113v-0.114l0.144-2.402L93.164,1112.546z
			 M169.833,1112.546l-0.136,2.274l-0.078,0.413l-0.335,1.796l3.593,0.671l0.335-1.789l0.1-0.528l0.021-0.113v-0.114l0.143-2.402
			L169.833,1112.546z M60.835,1116.253h12.29h12.289c-0.579,3.802-2.512,7.281-5.902,9.238c-3.955,2.284-8.819,2.284-12.774,0
			C63.347,1123.534,61.415,1120.055,60.835,1116.253z M137.483,1116.253h12.289h12.29c-0.579,3.802-2.512,7.281-5.902,9.238
			c-3.955,2.284-8.819,2.284-12.774,0C139.995,1123.534,138.062,1120.055,137.483,1116.253z M91.738,1120.102l-0.763,1.661
			l-0.478,1.033l-1.204,1.939l-0.97,1.547l3.101,1.925l0.962-1.547l1.27-2.032l0.057-0.093l0.05-0.107l0.527-1.14l0.764-1.661
			L91.738,1120.102z M168.407,1120.102l-0.763,1.661l-0.478,1.033l-1.205,1.939l-0.97,1.547l3.101,1.925l0.963-1.547l1.269-2.032
			l0.058-0.093l0.05-0.107l0.527-1.14l0.763-1.661L168.407,1120.102z M55.083,1121.67l-3.094,1.939l0.963,1.547l1.247,2.004
			l0.064,0.085l0.071,0.086l0.812,1.005l1.154,1.411l2.83-2.31l-1.154-1.411l-0.728-0.892l-1.197-1.925L55.083,1121.67z
			 M131.751,1121.67l-3.095,1.939l0.963,1.547l1.247,2.004l0.064,0.085l0.071,0.086l0.812,1.005l1.155,1.411l2.83-2.31l-1.155-1.411
			l-0.727-0.892l-1.198-1.925L131.751,1121.67z M86.285,1128.435l-1.482,1.062l-1.654,1.19l-1.212,0.635l-1.611,0.855l1.704,3.229
			l1.611-0.855l1.297-0.685l0.114-0.07l0.1-0.064l1.775-1.275l1.482-1.062L86.285,1128.435z M162.954,1128.435l-1.483,1.062
			l-1.653,1.19l-1.212,0.635l-1.611,0.855l1.704,3.229l1.61-0.855l1.298-0.685l0.113-0.07l0.101-0.064l1.775-1.275l1.482-1.062
			L162.954,1128.435z M61.52,1129.54l-2.125,2.951l1.483,1.07l0.249,0.178l0.1,0.064l0.114,0.078l2.609,1.369l0.106,0.064
			l0.122,0.042l0.37,0.136l1.718,0.62l1.24-3.429l-1.718-0.621l-0.242-0.092l-2.416-1.269l-0.129-0.086L61.52,1129.54z
			 M138.188,1129.54l-2.124,2.951l1.482,1.07l0.25,0.178l0.1,0.064l0.114,0.078l2.609,1.369l0.106,0.064l0.121,0.042l0.371,0.136
			l1.718,0.62l1.24-3.429l-1.718-0.621l-0.243-0.092l-2.416-1.269l-0.129-0.086L138.188,1129.54z M77.587,1133.262l-1.817,0.114
			l-2.638,0.192l-0.749-0.057l-1.824-0.129l-0.25,3.65l1.818,0.113l0.884,0.064h0.128h0.129l2.751-0.192l1.825-0.128
			L77.587,1133.262z M154.256,1133.262l-1.818,0.114l-2.637,0.192l-0.749-0.057l-1.825-0.129l-0.249,3.65l1.817,0.113l0.884,0.064
			h0.129h0.128l2.752-0.192l1.824-0.128L154.256,1133.262z M100.513,1144.517h21.899v3.65h-21.899V1144.517z M93.213,1151.817h5.476
			h25.549h5.475v3.65H93.213V1151.817z"/>
	</g>
	<g>
		<path d="M850.155,85.833c-3.454-2.045-7.468-3.241-11.767-3.241c-4.295,0-8.308,1.195-11.767,3.238l-26.288-26.29
			c2.045-3.455,3.239-7.468,3.239-11.765c0-12.798-10.412-23.211-23.211-23.211c-12.798,0-23.211,10.413-23.211,23.211
			c0,4.297,1.195,8.31,3.239,11.768l-26.289,26.29c-3.457-2.045-7.471-3.241-11.767-3.241c-12.797,0-23.211,10.413-23.211,23.212
			c0,12.797,10.414,23.209,23.211,23.209c12.798,0,23.212-10.412,23.212-23.209c0-4.298-1.196-8.311-3.238-11.769l26.289-26.29
			c3.455,2.046,7.469,3.241,11.765,3.241c4.298,0,8.311-1.195,11.769-3.238l26.289,26.29c-2.045,3.456-3.241,7.469-3.241,11.767
			c0,12.797,10.413,23.209,23.21,23.209c12.799,0,23.214-10.412,23.214-23.209c0-4.298-1.196-8.311-3.239-11.769l26.289-26.29
			 M884.652,67.746c3.456,2.046,7.471,3.241,11.766,3.241c12.798,0,23.211-10.413,23.211-23.211
			c0-12.798-10.413-23.211-23.211-23.211c-12.797,0-23.213,10.413-23.213,23.211c0,4.297,1.196,8.31,3.24,11.768l-26.29,26.29
			 M896.418,36.17c6.415,0,11.605,5.191,11.605,11.605c0,6.412-5.19,11.605-11.605,11.605c-6.413,0-11.605-5.193-11.605-11.605
			C884.812,41.361,890.005,36.17,896.418,36.17z M838.389,94.198c6.416,0,11.606,5.19,11.606,11.606
			c0,6.409-5.19,11.604-11.606,11.604c-6.41,0-11.603-5.194-11.603-11.604C826.786,99.389,831.979,94.198,838.389,94.198z
			 M780.362,36.17c6.416,0,11.605,5.191,11.605,11.605c0,6.412-5.189,11.605-11.605,11.605c-6.411,0-11.604-5.193-11.604-11.605
			C768.758,41.361,773.951,36.17,780.362,36.17z M722.335,94.198c6.415,0,11.606,5.19,11.606,11.606
			c0,6.409-5.191,11.604-11.606,11.604c-6.412,0-11.605-5.194-11.605-11.604C710.729,99.389,715.923,94.198,722.335,94.198z
			 M899.318,163.829h20.311v11.605H699.124v-11.605h20.31v-23.21h5.803v23.21h52.226V82.592h5.802v81.237h52.226v-23.21h5.803v23.21
			h52.224V82.592h5.803V163.829z"/>
	</g>
	<path d="M458.64,54.433c6.283,0,11.392-5.109,11.392-11.392c0-6.282-5.108-11.392-11.392-11.392
		c-6.283,0-11.392,5.109-11.392,11.392C447.249,49.323,452.357,54.433,458.64,54.433z M458.64,37.345
		c3.142,0,5.696,2.555,5.696,5.696c0,3.142-2.555,5.696-5.696,5.696c-3.141,0-5.696-2.555-5.696-5.696
		C452.944,39.899,455.499,37.345,458.64,37.345z"/>
	<path d="M433.008,51.584h4.511c0.048,0.117,0.094,0.234,0.142,0.351l-3.189,3.189c-0.535,0.536-0.834,1.259-0.834,2.014
		c0,0.754,0.299,1.481,0.834,2.014l8.057,8.057c1.068,1.068,2.959,1.068,4.027,0l3.189-3.189c0.117,0.048,0.234,0.097,0.351,0.142
		v4.511c0,1.572,1.276,2.848,2.848,2.848h11.392c1.572,0,2.848-1.276,2.848-2.848v-4.511c0.117-0.048,0.233-0.094,0.351-0.142
		l3.189,3.189c0.535,0.535,1.259,0.834,2.014,0.834s1.48-0.299,2.013-0.834l8.058-8.057c0.535-0.536,0.834-1.259,0.834-2.014
		c0-0.755-0.299-1.481-0.834-2.014l-3.19-3.189c0.048-0.117,0.097-0.234,0.142-0.351h4.511c1.572,0,2.848-1.276,2.848-2.848V37.345
		c0-1.572-1.275-2.848-2.848-2.848h-4.511c-0.048-0.117-0.094-0.233-0.142-0.35l3.19-3.19c0.535-0.535,0.834-1.258,0.834-2.013
		s-0.299-1.481-0.834-2.014l-8.058-8.057c-1.067-1.068-2.958-1.068-4.026,0l-3.189,3.189c-0.117-0.045-0.233-0.094-0.351-0.143
		v-4.511c0-1.572-1.275-2.848-2.848-2.848h-11.392c-1.572,0-2.848,1.276-2.848,2.848v4.511c-0.117,0.049-0.233,0.094-0.351,0.143
		l-3.189-3.189c-0.535-0.536-1.259-0.834-2.014-0.834c-0.754,0-1.48,0.299-2.013,0.834l-8.057,8.057
		c-0.535,0.535-0.834,1.259-0.834,2.014s0.299,1.481,0.834,2.013l3.189,3.19c-0.045,0.117-0.094,0.233-0.142,0.35h-4.511
		c-1.572,0-2.848,1.276-2.848,2.848v11.392C430.161,50.309,431.436,51.584,433.008,51.584z M435.856,40.193h3.685
		c1.259,0,2.373-0.829,2.729-2.037c0.342-1.147,0.789-2.238,1.335-3.244c0.602-1.108,0.402-2.48-0.49-3.372l-2.6-2.597l4.027-4.027
		l2.601,2.6c0.891,0.889,2.261,1.091,3.372,0.49c1.005-0.544,2.096-0.994,3.244-1.336c1.205-0.359,2.033-1.469,2.033-2.728v-3.686
		h5.696v3.686c0,1.259,0.829,2.372,2.036,2.728c1.148,0.342,2.239,0.789,3.244,1.336c1.108,0.601,2.48,0.398,3.372-0.49l2.601-2.6
		l4.026,4.027l-2.6,2.6c-0.892,0.892-1.091,2.261-0.49,3.372c0.544,1.005,0.994,2.096,1.336,3.244
		c0.355,1.205,1.467,2.034,2.726,2.034h3.685v5.696h-3.685c-1.259,0-2.372,0.829-2.729,2.036c-0.342,1.148-0.789,2.239-1.336,3.244
		c-0.601,1.108-0.401,2.48,0.49,3.372l2.6,2.6l-4.026,4.027l-2.601-2.6c-0.892-0.889-2.261-1.091-3.372-0.49
		c-1.005,0.544-2.096,0.994-3.243,1.335c-1.205,0.356-2.034,1.467-2.034,2.726v3.685h-5.696v-3.685c0-1.259-0.829-2.373-2.036-2.729
		c-1.148-0.342-2.238-0.789-3.244-1.335c-1.11-0.598-2.48-0.399-3.372,0.49l-2.601,2.6l-4.026-4.027l2.6-2.601
		c0.892-0.891,1.091-2.261,0.49-3.372c-0.544-1.005-0.994-2.096-1.336-3.244c-0.356-1.205-1.466-2.033-2.726-2.033h-3.685V40.193z"
		/>
	<path d="M515.6,57.28c-6.283,0-11.393,5.109-11.393,11.392s5.109,11.392,11.393,11.392s11.393-5.109,11.393-11.392
		S521.883,57.28,515.6,57.28z M515.6,74.368c-3.141,0-5.695-2.554-5.695-5.696s2.555-5.696,5.695-5.696s5.695,2.554,5.695,5.696
		S518.74,74.368,515.6,74.368z"/>
	<path d="M541.23,60.128h-4.51c-0.049-0.117-0.096-0.233-0.143-0.35l3.189-3.19c0.535-0.535,0.834-1.259,0.834-2.013
		c0-0.755-0.299-1.481-0.834-2.014l-8.057-8.057c-1.068-1.068-2.959-1.068-4.027,0l-3.189,3.19
		c-0.117-0.048-0.234-0.097-0.352-0.143v-4.511c0-1.572-1.275-2.848-2.848-2.848h-11.391c-1.572,0-2.85,1.276-2.85,2.848v4.511
		c-0.115,0.048-0.232,0.094-0.35,0.143l-3.189-3.19c-0.535-0.535-1.26-0.834-2.014-0.834s-1.48,0.299-2.014,0.834l-8.057,8.057
		c-0.535,0.535-0.834,1.259-0.834,2.014c0,0.754,0.299,1.481,0.834,2.013l3.189,3.19c-0.049,0.117-0.096,0.233-0.143,0.35h-4.51
		c-1.572,0-2.85,1.276-2.85,2.848v11.392c0,1.572,1.277,2.848,2.85,2.848h4.51c0.049,0.117,0.094,0.233,0.143,0.35l-3.189,3.19
		c-0.535,0.536-0.834,1.259-0.834,2.013c0,0.755,0.299,1.481,0.834,2.014l8.057,8.057c1.068,1.068,2.959,1.068,4.027,0l3.189-3.19
		c0.117,0.048,0.234,0.097,0.35,0.143v4.511c0,1.572,1.277,2.848,2.85,2.848h11.391c1.572,0,2.848-1.275,2.848-2.848v-4.511
		c0.117-0.048,0.234-0.094,0.352-0.143l3.189,3.19c0.535,0.535,1.258,0.834,2.014,0.834c0.754,0,1.48-0.299,2.014-0.834l8.057-8.057
		c0.535-0.535,0.834-1.259,0.834-2.014c0-0.754-0.299-1.481-0.834-2.013l-3.189-3.19c0.047-0.117,0.096-0.233,0.143-0.35h4.51
		c1.572,0,2.85-1.276,2.85-2.848V62.977C544.08,61.404,542.803,60.128,541.23,60.128z M538.383,71.521h-3.686
		c-1.258,0-2.371,0.829-2.727,2.036c-0.342,1.148-0.791,2.238-1.336,3.244c-0.602,1.108-0.402,2.481,0.488,3.372l2.602,2.601
		l-4.027,4.027l-2.602-2.6c-0.891-0.892-2.26-1.088-3.371-0.49c-1.006,0.544-2.096,0.994-3.244,1.336
		c-1.205,0.356-2.033,1.467-2.033,2.726v3.685h-5.695v-3.685c0-1.259-0.83-2.373-2.037-2.729c-1.146-0.342-2.238-0.789-3.244-1.335
		c-1.109-0.598-2.48-0.402-3.371,0.49l-2.6,2.6l-4.027-4.027l2.6-2.6c0.893-0.891,1.09-2.261,0.49-3.372
		c-0.545-1.005-0.994-2.096-1.336-3.244c-0.355-1.205-1.467-2.033-2.727-2.033h-3.684v-5.696h3.684c1.26,0,2.373-0.829,2.729-2.036
		c0.342-1.148,0.789-2.238,1.336-3.244c0.602-1.108,0.402-2.481-0.49-3.372l-2.6-2.601l4.027-4.027l2.6,2.6
		c0.889,0.889,2.26,1.088,3.373,0.49c1.006-0.544,2.096-0.994,3.244-1.336c1.203-0.356,2.033-1.467,2.033-2.726v-3.685h5.695v3.685
		c0,1.259,0.828,2.373,2.037,2.729c1.146,0.342,2.238,0.789,3.244,1.335c1.109,0.598,2.48,0.399,3.371-0.49l2.6-2.6l4.027,4.027
		l-2.6,2.6c-0.893,0.891-1.092,2.261-0.49,3.372c0.543,1.005,0.994,2.096,1.336,3.244c0.355,1.205,1.467,2.033,2.725,2.033h3.686
		V71.521z"/>
	<path d="M401.681,80.064c6.283,0,11.392-5.109,11.392-11.392s-5.109-11.392-11.392-11.392c-6.282,0-11.392,5.109-11.392,11.392
		S395.398,80.064,401.681,80.064z M401.681,62.977c3.142,0,5.696,2.554,5.696,5.696s-2.555,5.696-5.696,5.696
		c-3.141,0-5.696-2.554-5.696-5.696S398.54,62.977,401.681,62.977z"/>
	<path d="M376.049,77.216h4.511c0.049,0.117,0.094,0.233,0.143,0.35l-3.189,3.19c-0.536,0.536-0.834,1.259-0.834,2.013
		c0,0.755,0.299,1.481,0.834,2.014l8.057,8.057c1.068,1.068,2.959,1.068,4.027,0l3.19-3.19c0.117,0.048,0.233,0.097,0.35,0.143
		v4.511c0,1.572,1.276,2.848,2.848,2.848h11.392c1.572,0,2.848-1.275,2.848-2.848v-4.511c0.117-0.048,0.234-0.094,0.35-0.143
		l3.19,3.19c0.536,0.535,1.259,0.834,2.014,0.834c0.754,0,1.481-0.299,2.014-0.834l8.057-8.057c0.535-0.535,0.834-1.259,0.834-2.014
		c0-0.754-0.299-1.481-0.834-2.013l-3.19-3.19c0.049-0.117,0.097-0.233,0.143-0.35h4.511c1.572,0,2.848-1.276,2.848-2.848V62.977
		c0-1.572-1.276-2.848-2.848-2.848h-4.511c-0.048-0.117-0.094-0.233-0.143-0.35l3.19-3.19c0.535-0.535,0.834-1.259,0.834-2.013
		c0-0.755-0.299-1.481-0.834-2.014l-8.057-8.057c-1.068-1.068-2.959-1.068-4.027,0l-3.19,3.19c-0.116-0.048-0.233-0.097-0.35-0.143
		v-4.511c0-1.572-1.276-2.848-2.848-2.848h-11.392c-1.572,0-2.848,1.276-2.848,2.848v4.511c-0.117,0.048-0.233,0.094-0.35,0.143
		l-3.19-3.19c-0.535-0.535-1.258-0.834-2.013-0.834s-1.481,0.299-2.014,0.834l-8.057,8.057c-0.536,0.535-0.834,1.259-0.834,2.014
		c0,0.754,0.299,1.481,0.834,2.013l3.189,3.19c-0.045,0.117-0.094,0.233-0.143,0.35h-4.511c-1.572,0-2.848,1.276-2.848,2.848v11.392
		C373.201,75.94,374.477,77.216,376.049,77.216z M378.897,65.824h3.686c1.259,0,2.372-0.829,2.729-2.036
		c0.341-1.148,0.789-2.238,1.335-3.244c0.601-1.108,0.401-2.481-0.49-3.372l-2.6-2.597l4.027-4.027l2.6,2.6
		c0.889,0.889,2.258,1.088,3.372,0.49c1.005-0.544,2.096-0.994,3.244-1.335c1.205-0.359,2.034-1.47,2.034-2.729v-3.685h5.696v3.685
		c0,1.259,0.829,2.373,2.036,2.729c1.148,0.342,2.239,0.789,3.244,1.335c1.11,0.598,2.48,0.399,3.372-0.49l2.6-2.6l4.027,4.027
		l-2.6,2.6c-0.892,0.891-1.091,2.261-0.49,3.372c0.544,1.005,0.994,2.096,1.335,3.244c0.356,1.205,1.467,2.033,2.726,2.033h3.685
		v5.696h-3.685c-1.259,0-2.373,0.829-2.729,2.036c-0.342,1.148-0.789,2.238-1.335,3.244c-0.601,1.108-0.402,2.481,0.49,3.372
		l2.6,2.601l-4.027,4.027l-2.6-2.6c-0.889-0.892-2.261-1.088-3.372-0.49c-1.005,0.544-2.096,0.994-3.244,1.336
		c-1.205,0.356-2.033,1.467-2.033,2.726v3.685h-5.696v-3.685c0-1.259-0.829-2.373-2.037-2.729c-1.147-0.342-2.238-0.789-3.244-1.335
		c-1.111-0.598-2.48-0.402-3.372,0.49l-2.597,2.6l-4.027-4.027l2.6-2.6c0.891-0.891,1.091-2.261,0.49-3.372
		c-0.544-1.005-0.994-2.096-1.335-3.244c-0.359-1.205-1.47-2.033-2.729-2.033h-3.686V65.824z"/>
	<path d="M507.055,100h-96.83c-1.572,0-2.848,1.276-2.848,2.848v8.544h-8.544c-1.572,0-2.848,1.276-2.848,2.849v68.351
		c0,1.572,1.276,2.849,2.848,2.849h119.614c1.572,0,2.848-1.276,2.848-2.849V114.24c0-1.572-1.275-2.849-2.848-2.849h-8.543v-8.544
		C509.904,101.276,508.627,100,507.055,100z M504.207,105.696v62.655h-42.719v-62.655H504.207z M413.073,105.696h42.719v62.655
		h-42.719V105.696z M515.6,117.088v62.655H401.681v-62.655h5.696v54.111c0,1.572,1.275,2.848,2.848,2.848h96.83
		c1.572,0,2.85-1.275,2.85-2.848v-54.111H515.6z"/>
	<rect x="418.769" y="128.479" width="31.328" height="5.696"/>
	<rect x="418.769" y="139.871" width="31.328" height="5.696"/>
	<rect x="418.769" y="151.264" width="31.328" height="5.695"/>
	<rect x="467.184" y="128.479" width="31.328" height="5.696"/>
	<rect x="467.184" y="139.871" width="31.328" height="5.696"/>
	<rect x="467.184" y="151.264" width="31.328" height="5.695"/>
	<rect x="418.769" y="117.088" width="31.328" height="5.696"/>
	<rect x="467.184" y="117.088" width="31.328" height="5.696"/>
	<rect x="455.792" y="77.216" width="5.696" height="14.24"/>
	
		<rect x="473.957" y="87.184" transform="matrix(-0.7071 0.7071 -0.7071 -0.7071 883.0719 -185.7173)" width="12.084" height="5.696"/>
	
		<rect x="434.433" y="83.991" transform="matrix(-0.7071 0.7071 -0.7071 -0.7071 810.147 -155.5079)" width="5.696" height="12.084"/>
	<g>
		<path fill="none" d="M629.081,106.293c-1.194-1.553-2.442-1.458-3.354,0.331c-0.199,0.392-0.384,0.839-0.409,1.271
			c-0.156,2.507,0.787,4.531,2.83,6.34c1.229-1.637,1.786-3.311,1.899-5.118C630.11,108.087,629.731,107.139,629.081,106.293z"/>
		<path d="M676.52,75.796c-0.523,0.064-1.073,0.365-1.489,0.707c-0.275,0.227-0.331,0.718-0.495,1.118
			c0.819,0.318,1.426,0.553,2.172,0.842c-0.2,1.181-0.255,2.336-0.602,3.399c-1.913,5.861-4.234,11.57-7.981,16.513
			c-4.548,5.994-9.599,11.526-15.8,15.923c-4.867,3.453-10.312,4.629-16.135,4.439c-2.058-0.067-4.002-0.655-5.746-2.095
			c0.198-0.472,0.374-0.866,0.531-1.265c0.585-1.477,1.299-2.918,1.711-4.441c0.869-3.215-0.333-5.823-2.78-7.887
			c-1.813-1.528-3.841-1.36-5.488,0.336c-1.792,1.846-2.472,4.044-1.979,6.579c0.352,1.816,1.146,3.439,2.202,4.951
			c0.431,0.615,0.77,1.296,1.174,1.988c-0.549,0.536-0.913,0.975-1.357,1.306c-0.82,0.611-1.656,1.211-2.534,1.731
			c-6.969,4.13-14.48,5.913-22.562,5.137c-1.699-0.165-3.383-0.468-5.076-0.679c-6.601-0.817-12.027-3.953-16.74-8.486
			c-0.737-0.707-1.585-1.38-2.085-2.238c-1.483-2.55-2.842-5.175-4.19-7.801c-0.276-0.543-0.292-1.22-0.499-2.155
			c2.051,1.064,3.731,1.993,5.465,2.808c0.58,0.271,1.301,0.356,1.951,0.33c0.759-0.029,1.219-1.344,0.713-1.888
			c-0.228-0.244-0.483-0.498-0.778-0.641c-3.104-1.502-5.83-3.492-8.163-6.051c-0.747-0.818-1.707-1.466-3.066-1.328
			c-0.395,1.613-0.916,3.125-1.118,4.677c-0.54,4.174-0.964,8.365-1.381,12.555c-0.043,0.449,0.182,0.922,0.323,1.389
			c0.604-1.294,1.15-2.616,1.84-3.861c0.732-1.319,0.46-3.102,1.987-4.376c0.979,1.615,1.805,3.099,2.745,4.501
			c1.198,1.79,2.307,3.695,3.795,5.222c1.812,1.858,3.919,3.458,6.009,5.021c3.514,2.629,7.444,4.371,11.814,5.031
			c2.024,0.306,4.044,0.687,6.079,0.878c7.412,0.691,14.536-0.373,21.179-3.866c2.799-1.472,5.491-3.146,8.437-4.847
			c-0.16,0-0.036-0.031,0.06,0.007c0.318,0.125,0.639,0.249,0.935,0.419c3.403,1.976,7.104,2.396,10.901,1.842
			c2.462-0.358,4.926-0.906,7.3-1.655c1.71-0.535,3.416-1.339,4.867-2.38c4.066-2.913,7.951-6.03,11.389-9.735
			c5.642-6.076,10.25-12.738,13.09-20.573c0.817-2.257,1.59-4.526,1.7-6.931c0.051-1.106-0.15-2.254-0.432-3.332
			C678.182,76.082,677.37,75.69,676.52,75.796z M625.316,107.894c0.026-0.433,0.21-0.879,0.409-1.271
			c0.913-1.788,2.161-1.883,3.354-0.331c0.65,0.85,1.03,1.796,0.964,2.824c-0.112,1.807-0.669,3.479-1.898,5.118
			C626.104,112.425,625.158,110.401,625.316,107.894z"/>
		<path d="M564.76,115.725c-0.014-0.053-0.034-0.105-0.049-0.159c-0.021,0.047-0.04,0.092-0.062,0.135L564.76,115.725z"/>
	</g>
	<g>
		<path fill="none" d="M280.662,97.049c-0.131,1.247,0.284,2.416,1.031,3.478c1.372,1.945,2.892,1.893,4.09-0.232
			c0.262-0.469,0.507-1.002,0.561-1.525c0.316-3.038-0.729-5.543-3.121-7.843C281.65,92.855,280.889,94.86,280.662,97.049z"/>
		<path d="M355.285,102.299c-1.11-2.012-2.036-3.855-3.109-5.605c-1.367-2.233-2.618-4.604-4.348-6.533
			c-2.11-2.35-4.587-4.397-7.048-6.399c-4.136-3.371-8.824-5.685-14.099-6.705c-2.445-0.473-4.878-1.036-7.342-1.369
			c-8.969-1.211-17.676-0.275-25.918,3.634c-3.474,1.647-6.827,3.547-10.491,5.465c0.195,0.009,0.042,0.042-0.074-0.01
			c-0.378-0.168-0.763-0.335-1.111-0.556c-4.038-2.569-8.512-3.266-13.15-2.783c-3.011,0.312-6.03,0.854-8.952,1.644
			c-2.102,0.566-4.215,1.457-6.03,2.647c-5.085,3.336-9.959,6.929-14.322,11.256c-7.156,7.1-13.088,14.96-16.93,24.335
			c-1.106,2.699-2.157,5.419-2.413,8.334c-0.117,1.341,0.071,2.745,0.36,4.068c0.227,1.043,1.191,1.561,2.232,1.476
			c0.639-0.051,1.323-0.39,1.845-0.784c0.345-0.261,0.437-0.855,0.658-1.334c-0.98-0.426-1.705-0.742-2.598-1.131
			c0.303-1.425,0.428-2.826,0.901-4.098c2.617-7.026,5.722-13.843,10.523-19.659c5.824-7.056,12.237-13.521,19.989-18.552
			c6.085-3.95,12.758-5.105,19.821-4.584c2.496,0.185,4.828,0.997,6.876,2.831c-0.267,0.564-0.499,1.034-0.71,1.511
			c-0.783,1.764-1.724,3.478-2.3,5.309c-1.217,3.862,0.113,7.09,2.983,9.719c2.127,1.947,4.598,1.845,6.683-0.134
			c2.27-2.152,3.204-4.787,2.734-7.891c-0.337-2.226-1.22-4.234-2.429-6.125c-0.492-0.77-0.869-1.614-1.325-2.474
			c0.693-0.624,1.158-1.139,1.714-1.519c1.026-0.703,2.072-1.388,3.166-1.977c8.67-4.667,17.885-6.457,27.665-5.109
			c2.055,0.284,4.085,0.738,6.131,1.077c7.978,1.324,14.412,5.404,19.911,11.147c0.859,0.896,1.854,1.755,2.42,2.824
			c1.674,3.172,3.193,6.427,4.699,9.685c0.309,0.673,0.292,1.495,0.497,2.644c-2.438-1.397-4.432-2.61-6.498-3.683
			c-0.69-0.359-1.562-0.5-2.353-0.501c-0.923-0.002-1.548,1.571-0.96,2.258c0.264,0.309,0.561,0.629,0.912,0.817
			c3.696,1.979,6.909,4.532,9.614,7.758c0.867,1.033,2,1.865,3.658,1.766c0.562-1.939,1.27-3.748,1.592-5.623
			c0.867-5.044,1.592-10.113,2.307-15.181c0.076-0.542-0.173-1.13-0.322-1.703c-0.797,1.541-1.529,3.119-2.429,4.597
			C356.962,98.649,357.204,100.827,355.285,102.299z M286.345,98.769c-0.055,0.525-0.299,1.058-0.562,1.525
			c-1.197,2.125-2.718,2.178-4.089,0.233c-0.749-1.062-1.164-2.232-1.032-3.478c0.229-2.189,0.988-4.194,2.563-6.123
			C285.616,93.227,286.662,95.732,286.345,98.769z"/>
		<path d="M360.297,92.291c0.014,0.064,0.033,0.128,0.051,0.193c0.028-0.054,0.053-0.105,0.08-0.157L360.297,92.291z"/>
	</g>
</g>
<g id="Layer_2">
	<path d="M735.404,92.484c30.702-31.501,30.702-31.501,30.702-31.501"/>
	<path d="M794.178,60.983"/>
	<path d="M794.178,60.983"/>
	<path d="M852.949,92.484"/>
	<line x1="794.178" y1="57.28" x2="825.756" y2="92.484"/>
	<line x1="852.949" y1="92.484" x2="884.527" y2="60.983"/>
</g>
</svg>
